PathFileType	4	(X/Y/Z)	/Users/itak/Documents/Research/Walk-IL/dataset/trc/00388_00012.trc
DataRate	CameraRate	NumFrames	NumMarkers	Units	OrigDataRate	OrigDataStartFrame	OrigNumFrames
100.000000	100.000000	4	53	mm	100.000000	76	610
Frame#	Time	RPSI			LPSI			L3			STRN			T10			C7			CLAV			RBAK			LBAK			LSHO			LUPA			LAEL			LAOL			LWTS			LWPS			LFRA			LIFD			LHPS			LHTS			RSHO			RUPA			RAEL			RAOL			RWTS			RWPS			RFRA			RIFD			RHTS			RHPS			RBHD			LFHD			RFHD			LBHD			LHIP			RHIP			RASI			LKNE			LTHI			LANK			LTIP			LTOE			LMT5			LHEE			RKNE			RTHI			RANK			RTIP			RTOE			RMT1			RMT5			RHEE			LASI			LMT1			
		X1	Y1	Z1	X2	Y2	Z2	X3	Y3	Z3	X4	Y4	Z4	X5	Y5	Z5	X6	Y6	Z6	X7	Y7	Z7	X8	Y8	Z8	X9	Y9	Z9	X10	Y10	Z10	X11	Y11	Z11	X12	Y12	Z12	X13	Y13	Z13	X14	Y14	Z14	X15	Y15	Z15	X16	Y16	Z16	X17	Y17	Z17	X18	Y18	Z18	X19	Y19	Z19	X20	Y20	Z20	X21	Y21	Z21	X22	Y22	Z22	X23	Y23	Z23	X24	Y24	Z24	X25	Y25	Z25	X26	Y26	Z26	X27	Y27	Z27	X28	Y28	Z28	X29	Y29	Z29	X30	Y30	Z30	X31	Y31	Z31	X32	Y32	Z32	X33	Y33	Z33	X34	Y34	Z34	X35	Y35	Z35	X36	Y36	Z36	X37	Y37	Z37	X38	Y38	Z38	X39	Y39	Z39	X40	Y40	Z40	X41	Y41	Z41	X42	Y42	Z42	X43	Y43	Z43	X44	Y44	Z44	X45	Y45	Z45	X46	Y46	Z46	X47	Y47	Z47	X48	Y48	Z48	X49	Y49	Z49	X50	Y50	Z50	X51	Y51	Z51	X52	Y52	Z52	X53	Y53	Z53	

77	0.76	931.3943481445312	979.9735717773438	-28.67632293701172	925.204345703125	972.36376953125	-160.2377166748047	930.8817749023438	1047.962280273438	-93.59676361083984	1168.430908203125	1209.813232421875	-87.88643646240234	924.51123046875	1150.775390625	-97.01639556884766	953.5490112304688	1401.417358398438	-108.9069442749023	1111.55126953125	1327.34619140625	-93.24234008789062	913.9697265625	1253.481079101562	-40.80127716064453	946.2332763671875	1361.46142578125	-213.9335632324219	1037.877197265625	1376.255249023438	-259.0638732910156	1028.410522460938	1257.028198242188	-327.0903625488281	1067.219482421875	1060.015747070312	-340.0301513671875	997.2427368164062	1037.952514648438	-296.887939453125	1152.858276367188	854.2672119140625	-255.2687225341797	1129.282592773438	832.7855834960938	-331.2505798339844	1094.2705078125	956.6614990234375	-339.077880859375	1161.209228515625	672.284423828125	-246.7708587646484	1144.590942382812	749.9420166015625	-314.4590454101562	1181.998657226562	758.3969116210938	-262.4851379394531	1007.633483886719	1382.43408203125	55.41167831420898	996.9102783203125	1316.986694335938	115.0143280029297	1012.202026367188	1054.637451171875	149.6198883056641	995.9971313476562	1043.725830078125	58.02996063232422	1149.190063476562	844.6708984375	121.1014556884766	1106.269775390625	830.7381591796875	179.5382843017578	1040.025634765625	989.6349487304688	164.6750793457031	1161.319458007812	672.5507202148438	124.03125	1173.455688476562	742.1765747070312	141.3052673339844	1114.490478515625	741.4819946289062	177.8282623291016	966.9881591796875	1591.302734375	-48.56734848022461	1151.14599609375	1599.301635742188	-121.0437240600586	1094.883178710938	1607.68701171875	-11.15576267242432	1025.004028320312	1578.404541015625	-197.4286956787109	1010.681640625	958.7233276367188	-273.3907165527344	1017.682739257812	954.5299682617188	86.81784057617188	1147.814453125	964.8840942382812	31.6663818359375	1052.5966796875	465.8043518066406	-250.3938293457031	1047.572021484375	608.6869506835938	-262.2893371582031	956.1734008789062	32.01842498779297	-210.5164794921875	1001.267944335938	235.7834625244141	-242.8705139160156	1171.389038085938	31.60207176208496	-140.6325073242188	1084.310424804688	30.81940460205078	-217.6422271728516	916.3876953125	29.09308815002441	-155.1169586181641	1042.421630859375	467.4094543457031	64.45011901855469	1089.287109375	729.79833984375	86.45817565917969	993.77734375	46.89491271972656	25.52407264709473	1048.989501953125	341.8629150390625	48.60573196411133	1171.845825195312	29.70202827453613	-40.95795822143555	1096.600708007812	33.93624114990234	-67.69512176513672	1078.994018554688	41.11160659790039	28.54953765869141	917.2933959960938	31.74196624755859	-27.19356918334961	1133.709716796875	964.0662231445312	-236.5299377441406	1088.705810546875	35.30631637573242	-112.8112716674805	
78	0.77	931.4141235351562	979.9677734375	-28.6315803527832	925.2020263671875	972.38623046875	-160.1821136474609	930.8416748046875	1047.944580078125	-93.56862640380859	1168.3779296875	1209.821655273438	-87.83188629150391	924.4788208007812	1150.748901367188	-96.97608947753906	953.5070190429688	1401.403564453125	-108.8770751953125	1111.493286132812	1327.333618164062	-93.16036987304688	913.9219360351562	1253.4462890625	-40.76586151123047	946.197021484375	1361.468383789062	-213.8955230712891	1037.8525390625	1376.279418945312	-259.0018310546875	1028.408569335938	1257.029907226562	-327.0323791503906	1067.265625	1060.0185546875	-339.9638366699219	997.2412719726562	1037.943481445312	-296.862548828125	1152.901977539062	854.2869262695312	-255.1957550048828	1129.408935546875	832.8474731445312	-331.1497192382812	1094.315307617188	956.6862182617188	-339.0066528320312	1161.428833007812	672.3032836914062	-246.5803833007812	1144.715209960938	749.9682006835938	-314.3585510253906	1182.0517578125	758.3867797851562	-262.3169555664062	1007.635009765625	1382.442138671875	55.46719741821289	996.8222045898438	1316.978271484375	115.1287612915039	1012.080932617188	1054.617919921875	149.6561584472656	995.9683837890625	1043.71875	58.06115341186523	1149.002197265625	844.5855712890625	121.2292098999023	1105.89990234375	830.6785278320312	179.5806884765625	1039.89111328125	989.6110229492188	164.7591094970703	1161.046752929688	672.5201416015625	124.1753158569336	1173.229248046875	742.0781860351562	141.4625549316406	1114.262939453125	741.427490234375	177.9618377685547	966.9351196289062	1591.2744140625	-48.47160720825195	1151.206909179688	1599.318359375	-120.6997833251953	1094.75390625	1607.620971679688	-10.82546806335449	1025.177124023438	1578.552978515625	-197.2621917724609	1010.684997558594	958.7238159179688	-273.321533203125	1017.6591796875	954.5219116210938	86.94359588623047	1147.75439453125	964.8734741210938	31.70907783508301	1052.619873046875	465.8081970214844	-250.3580780029297	1047.624389648438	608.7429809570312	-262.2687377929688	956.168701171875	32.02182388305664	-210.5138244628906	1001.269226074219	235.7895355224609	-242.8470916748047	1171.394287109375	31.61149787902832	-140.6363830566406	1084.315551757812	30.81872367858887	-217.6300659179688	916.3779296875	29.08620262145996	-155.1191864013672	1042.3935546875	467.40380859375	64.49391174316406	1089.258056640625	729.8191528320312	86.44153594970703	993.77099609375	46.89007568359375	25.5482292175293	1048.982788085938	341.85791015625	48.64040374755859	1171.843872070312	29.72196388244629	-40.96040725708008	1096.598266601562	33.94044494628906	-67.68967437744141	1078.9873046875	41.11457443237305	28.55696487426758	917.344970703125	31.72311973571777	-27.16941070556641	1133.755737304688	964.15966796875	-236.5234985351562	1088.699462890625	35.29829406738281	-112.8028717041016	
79	0.78	931.4532470703125	979.96875	-28.58294296264648	925.1952514648438	972.4066162109375	-160.1202850341797	930.7994995117188	1047.933471679688	-93.53650665283203	1168.324462890625	1209.831176757812	-87.78501892089844	924.443359375	1150.729125976562	-96.92979431152344	953.4689331054688	1401.390014648438	-108.8459320068359	1111.436889648438	1327.32275390625	-93.08241271972656	913.8615112304688	1253.408813476562	-40.72978591918945	946.157958984375	1361.478881835938	-213.8567810058594	1037.829345703125	1376.312133789062	-258.9346923828125	1028.404174804688	1257.0390625	-326.9767761230469	1067.3076171875	1060.029296875	-339.8993530273438	997.2400512695312	1037.940795898438	-296.8375244140625	1152.933837890625	854.2941284179688	-255.11669921875	1129.521484375	832.908447265625	-331.0557861328125	1094.351196289062	956.716064453125	-338.9425354003906	1161.630126953125	672.3148193359375	-246.3938293457031	1144.830810546875	749.9973754882812	-314.2633361816406	1182.077392578125	758.3543701171875	-262.1519165039062	1007.635803222656	1382.456176757812	55.53682327270508	996.7357177734375	1316.9638671875	115.2440643310547	1011.964904785156	1054.591674804688	149.7008819580078	995.9208374023438	1043.71533203125	58.08432769775391	1148.80126953125	844.4891357421875	121.3476104736328	1105.503784179688	830.6069946289062	179.6064300537109	1039.767822265625	989.58447265625	164.8392639160156	1160.693359375	672.4668579101562	124.2645034790039	1173.019409179688	741.9783935546875	141.6121368408203	1114.06982421875	741.370361328125	178.0998840332031	966.8887939453125	1591.247924804688	-48.34810256958008	1151.252197265625	1599.341064453125	-120.3896255493164	1094.67236328125	1607.55322265625	-10.5291109085083	1025.297485351562	1578.681274414062	-197.0838165283203	1010.650390625	958.7211303710938	-273.2574462890625	1017.647644042969	954.5044555664062	87.08393096923828	1147.699951171875	964.8712158203125	31.73860549926758	1052.64013671875	465.8153076171875	-250.3255462646484	1047.664672851562	608.79443359375	-262.2482299804688	956.1646728515625	32.02456665039062	-210.5114898681641	1001.265869140625	235.7960052490234	-242.8202819824219	1171.403686523438	31.62434959411621	-140.6438751220703	1084.322021484375	30.82088088989258	-217.6142578125	916.367919921875	29.07967567443848	-155.1212768554688	1042.367919921875	467.3939208984375	64.53570556640625	1089.246337890625	729.83056640625	86.43978118896484	993.763427734375	46.88315582275391	25.57364082336426	1048.976928710938	341.85205078125	48.67849731445312	1171.843505859375	29.74320030212402	-40.96495819091797	1096.59716796875	33.94464111328125	-67.68529510498047	1078.980346679688	41.11623382568359	28.56597709655762	917.4209594726562	31.6960506439209	-27.13808059692383	1133.791137695312	964.2459716796875	-236.5155944824219	1088.691772460938	35.28831481933594	-112.7938995361328	
80	0.79	931.5067749023438	979.9739379882812	-28.5291633605957	925.1843872070312	972.42431640625	-160.0521850585938	930.7579956054688	1047.9287109375	-93.49974060058594	1168.270874023438	1209.840454101562	-87.74427795410156	924.4064331054688	1150.718872070312	-96.87442779541016	953.4360961914062	1401.377197265625	-108.8138656616211	1111.384033203125	1327.315063476562	-93.01036071777344	913.7876586914062	1253.367919921875	-40.69450378417969	946.116455078125	1361.491821289062	-213.8188934326172	1037.80712890625	1376.352294921875	-258.8635559082031	1028.39892578125	1257.055908203125	-326.9253234863281	1067.345092773438	1060.046508789062	-339.8375549316406	997.2496948242188	1037.945678710938	-296.8096313476562	1152.950561523438	854.2870483398438	-255.0271453857422	1129.615966796875	832.9642944335938	-330.9686279296875	1094.378173828125	956.7501220703125	-338.8843078613281	1161.803955078125	672.3181762695312	-246.2149963378906	1144.934326171875	750.02880859375	-314.1723022460938	1182.072875976562	758.2949829101562	-261.9816589355469	1007.628784179688	1382.475219726562	55.61711502075195	996.65234375	1316.9423828125	115.3508682250977	1011.853271484375	1054.558471679688	149.7531127929688	995.8591918945312	1043.713989257812	58.10002136230469	1148.589721679688	844.3853149414062	121.456657409668	1105.088623046875	830.5249633789062	179.6171722412109	1039.662109375	989.55712890625	164.9170532226562	1160.275512695312	672.3864135742188	124.3093872070312	1172.825561523438	741.8755493164062	141.755615234375	1113.90625	741.3120727539062	178.2415466308594	966.8507690429688	1591.220336914062	-48.19504547119141	1151.279418945312	1599.36865234375	-120.1078414916992	1094.630859375	1607.481079101562	-10.26207447052002	1025.365112304688	1578.783813476562	-196.8908386230469	1010.581970214844	958.7127685546875	-273.197265625	1017.64892578125	954.4766845703125	87.23431396484375	1147.6513671875	964.8748168945312	31.75897026062012	1052.657592773438	465.8244018554688	-250.2959442138672	1047.693115234375	608.8406372070312	-262.2281799316406	956.1618041992188	32.0263786315918	-210.5097808837891	1001.259765625	235.8035583496094	-242.7913513183594	1171.414916992188	31.63712501525879	-140.653564453125	1084.328857421875	30.82579612731934	-217.5962371826172	916.360107421875	29.07506942749023	-155.1226959228516	1042.344116210938	467.37939453125	64.57649230957031	1089.249755859375	729.8336791992188	86.45448303222656	993.7548828125	46.87405014038086	25.5981388092041	1048.97265625	341.8458557128906	48.72115325927734	1171.843505859375	29.76350975036621	-40.97015762329102	1096.597534179688	33.9498176574707	-67.68191528320312	1078.97412109375	41.11647033691406	28.57618141174316	917.5038452148438	31.66564559936523	-27.10391616821289	1133.819213867188	964.3316040039062	-236.5073089599609	1088.684204101562	35.27841949462891	-112.7859420776367	
